<?xml version="1.0" standalone="no"?>
<!DOCTYPE svg PUBLIC "-//W3C//DTD SVG 20010904//EN"
 "http://www.w3.org/TR/2001/REC-SVG-20010904/DTD/svg10.dtd">
<svg version="1.0" xmlns="http://www.w3.org/2000/svg"
 width="512.000000pt" height="512.000000pt" viewBox="0 0 512.000000 512.000000"
 preserveAspectRatio="xMidYMid meet">
<metadata>
Created by potrace 1.14, written by Peter Selinger 2001-2017
</metadata>
<g transform="translate(0.000000,512.000000) scale(0.100000,-0.100000)"
fill="#000000" stroke="none">
<path d="M2405 4464 c-6 -2 -37 -5 -70 -8 -91 -9 -137 -14 -175 -21 -19 -3
-44 -8 -55 -10 -94 -16 -292 -71 -312 -88 -7 -5 -13 -7 -13 -3 0 5 -71 -19
-125 -43 -121 -54 -245 -116 -245 -123 0 -4 -5 -8 -12 -8 -12 0 -138 -73 -168
-97 -8 -7 -55 -42 -105 -79 -49 -37 -103 -79 -118 -93 -79 -73 -207 -203 -242
-246 -22 -27 -48 -57 -57 -67 -10 -10 -18 -21 -18 -24 0 -3 -16 -25 -35 -48
-19 -24 -35 -48 -35 -55 0 -6 -4 -11 -10 -11 -5 0 -10 -7 -10 -17 0 -9 -3 -13
-7 -10 -3 4 -11 -3 -18 -16 -19 -36 -40 -72 -45 -77 -3 -3 -18 -30 -34 -60
-16 -30 -38 -70 -48 -87 -10 -18 -14 -33 -10 -33 4 0 2 -4 -3 -8 -9 -5 -67
-131 -71 -152 0 -3 -6 -18 -13 -35 -21 -49 -75 -222 -86 -275 -2 -8 -8 -35
-14 -60 -11 -48 -16 -78 -26 -150 -13 -88 -16 -126 -19 -237 -2 -61 -6 -115
-10 -121 -3 -5 -3 -12 0 -15 3 -3 7 -49 9 -104 4 -94 10 -160 20 -213 2 -14 7
-41 9 -60 5 -34 9 -53 21 -102 3 -13 8 -36 10 -53 3 -16 9 -41 14 -55 5 -14
24 -72 42 -130 18 -58 37 -108 42 -111 5 -3 9 -10 9 -15 0 -5 4 -20 9 -34 16
-42 20 -55 20 -55 -1 0 19 -38 43 -85 l44 -85 700 0 c385 0 703 -3 707 -6 3
-4 -18 -9 -47 -13 -64 -8 -111 -14 -160 -21 -90 -12 -116 -15 -158 -20 -25 -2
-45 -5 -45 -5 0 -4 -95 -16 -145 -19 -13 -1 -16 -17 -17 -81 -1 -47 -6 -87
-13 -95 -7 -8 -11 -16 -9 -16 2 -1 565 -2 1252 -3 1106 -1 1247 1 1241 14 -4
8 -8 51 -10 94 -2 44 -5 80 -7 82 -2 2 -27 6 -57 9 -54 6 -95 12 -95 15 0 0
-20 3 -45 5 -53 5 -111 13 -160 20 -19 3 -57 8 -85 11 -27 3 -59 7 -70 9 -11
2 -28 4 -37 4 -10 1 -18 4 -18 9 0 4 314 7 698 6 655 0 698 1 715 17 9 10 17
20 17 23 0 3 17 40 38 83 21 43 39 83 41 88 4 12 13 35 41 105 12 30 23 60 24
65 2 6 11 37 21 70 11 33 20 63 21 68 1 4 2 8 4 10 1 1 3 11 5 22 1 11 12 67
24 124 23 107 33 184 35 258 1 24 3 43 6 43 7 0 3 281 -5 365 -13 137 -32 261
-45 295 -1 3 -2 8 -2 11 1 3 -10 46 -24 95 -14 49 -27 96 -29 104 -2 8 -4 16
-5 18 -2 1 -3 6 -4 11 0 5 -4 13 -8 17 -5 4 -8 18 -8 31 0 13 -5 23 -12 23 -6
0 -9 2 -6 6 10 9 -83 218 -146 329 -35 60 -107 175 -121 192 -5 7 -16 19 -22
27 -7 8 -13 18 -13 21 0 28 -307 355 -395 420 -22 16 -42 32 -45 36 -17 19
-119 89 -130 89 -7 0 -10 3 -7 7 4 3 -3 11 -16 18 -12 7 -51 30 -87 52 -59 36
-225 126 -242 132 -4 1 -23 8 -43 17 -19 8 -38 15 -42 15 -5 1 -17 6 -28 12
-11 6 -22 12 -25 12 -31 6 -127 42 -132 50 -4 5 -8 7 -8 3 0 -3 -21 0 -47 8
-26 8 -57 16 -68 19 -11 2 -40 9 -65 15 -25 6 -58 13 -75 16 -16 2 -41 6 -55
9 -37 8 -100 16 -145 20 -22 2 -40 4 -40 5 0 3 -339 7 -350 4z m-197 -1348
c42 9 102 10 102 1 0 -6 5 -6 13 0 14 11 467 10 485 -1 7 -4 12 -4 12 1 0 4
17 7 37 6 21 -2 81 -5 133 -7 143 -7 330 -21 400 -29 19 -3 62 -8 95 -12 33
-4 63 -9 66 -11 4 -2 27 -6 50 -9 24 -3 65 -12 92 -20 26 -8 47 -11 47 -8 0 3
6 1 13 -4 6 -6 28 -15 47 -22 19 -6 52 -26 72 -43 35 -32 178 -237 178 -257 0
-5 3 -11 8 -13 4 -1 18 -23 31 -48 14 -25 28 -47 31 -50 4 -3 24 -36 44 -75
21 -38 43 -78 49 -87 23 -35 52 -33 -503 -43 -195 -3 -357 -8 -360 -10 -3 -2
-12 0 -20 5 -7 4 -24 4 -36 0 -14 -6 -26 -5 -29 0 -3 5 -12 7 -20 4 -23 -9
-1165 -10 -1165 -1 0 5 -6 5 -12 1 -14 -9 -255 -7 -268 1 -5 3 -11 2 -14 -3
-3 -4 -30 -5 -60 -2 -31 3 -62 3 -68 -1 -7 -4 -16 -5 -20 -3 -5 3 -138 8 -296
10 -447 8 -457 8 -454 26 5 28 191 343 269 454 49 70 83 106 115 121 13 5 34
16 48 22 14 6 35 14 48 16 12 3 31 7 42 10 58 14 110 25 150 31 19 2 51 7 70
10 19 3 53 7 75 9 22 2 65 7 95 10 71 7 183 15 288 19 46 2 86 7 90 10 4 4 8
3 10 -2 2 -6 11 -8 20 -6z m-1530 -580 c44 -16 72 -37 72 -54 0 -6 3 -12 8
-14 4 -1 15 -18 25 -36 18 -32 18 -32 -5 -41 -13 -5 -33 -7 -45 -5 -12 2 -24
1 -27 -4 -4 -7 -79 -7 -138 1 -50 7 -98 68 -98 126 0 17 7 34 16 39 23 13 142
5 192 -12z m3944 6 c20 -16 14 -65 -11 -106 -19 -30 -38 -44 -73 -52 -5 -1
-11 -2 -15 -4 -13 -3 -127 0 -148 4 -11 3 -30 5 -42 5 -17 1 -22 6 -20 21 2
11 9 26 15 32 7 7 12 16 12 20 0 5 12 21 26 37 23 26 41 34 108 47 11 3 21 6
22 7 9 8 114 -1 126 -11z m-3942 -225 c0 -2 -56 -60 -123 -128 -68 -68 -130
-135 -137 -149 -14 -26 -18 -53 -25 -185 -2 -44 -5 -82 -5 -85 -1 -3 -1 -63 0
-135 1 -124 -3 -153 -14 -90 -2 17 -5 30 -6 30 -1 0 -3 16 -5 35 -1 19 -3 35
-5 35 -1 0 -4 11 -6 25 -2 14 -6 41 -9 60 -3 19 -7 49 -9 65 -11 90 -18 141
-23 148 -2 4 1 7 7 7 6 0 8 5 3 13 -30 48 8 112 111 192 34 26 236 163 244
164 1 1 2 -1 2 -2z m3770 -18 c0 -5 6 -9 13 -9 22 0 218 -140 274 -196 l52
-52 -4 -84 c-3 -80 -8 -124 -22 -198 -3 -19 -7 -44 -9 -55 -1 -11 -5 -35 -8
-52 -10 -57 -17 -97 -19 -115 0 -9 -3 -15 -6 -12 -3 3 -6 71 -7 152 -1 147
-10 296 -19 341 -2 14 -11 29 -20 33 -8 5 -15 16 -15 23 0 8 -7 15 -15 15 -8
0 -15 5 -15 11 0 13 -38 49 -52 49 -4 0 -8 4 -8 10 0 5 -35 43 -77 85 -43 42
-70 73 -60 69 9 -3 17 -10 17 -15z m-3770 -444 c19 -3 46 -7 60 -10 23 -5 51
-9 149 -21 20 -2 68 -6 106 -9 179 -13 247 -38 343 -125 29 -27 82 -95 82
-105 0 -4 9 -18 20 -32 11 -14 20 -29 20 -33 0 -4 -9 -10 -20 -13 -11 -3 -20
-2 -20 1 0 4 -39 8 -88 9 -121 3 -272 14 -367 27 -16 2 -57 7 -90 11 -32 3
-62 8 -65 10 -4 2 -22 7 -41 10 -95 17 -179 102 -194 198 -16 104 -14 111 40
95 17 -4 46 -10 65 -13z m3854 -39 c-4 -28 -7 -57 -7 -63 0 -7 -3 -13 -7 -13
-4 0 -7 -6 -7 -13 0 -8 -14 -34 -31 -59 -32 -46 -88 -82 -144 -92 -15 -2 -31
-7 -35 -9 -5 -3 -33 -8 -63 -11 -30 -4 -66 -8 -80 -10 -46 -8 -164 -19 -218
-21 -29 -1 -55 -5 -59 -8 -3 -4 -13 -2 -23 3 -10 5 -20 6 -24 3 -4 -4 -50 -9
-103 -10 l-95 -4 28 48 c50 86 133 172 194 201 87 41 102 44 250 57 105 8 215
21 215 25 0 0 16 3 35 5 38 4 75 11 130 24 19 4 39 6 43 3 5 -2 5 -27 1 -56z
m-2859 -51 c55 -3 129 -8 165 -11 168 -11 226 -14 380 -20 316 -13 666 -6
1065 21 212 14 255 16 255 11 0 -5 -57 -157 -80 -211 -36 -88 -105 -225 -113
-225 -6 0 -8 -3 -5 -6 14 -14 -54 -62 -98 -70 -13 -2 -36 -6 -51 -9 -40 -7
-99 -15 -163 -20 -30 -2 -55 -4 -55 -5 0 -6 -319 -21 -435 -21 -308 0 -740 48
-740 82 0 5 -6 9 -13 9 -8 0 -22 17 -33 37 -10 21 -25 44 -32 51 -7 8 -10 18
-7 23 4 5 1 9 -4 9 -6 0 -11 4 -11 9 0 5 -12 35 -27 67 -15 33 -28 61 -29 64
0 3 -4 12 -7 20 -39 94 -79 212 -69 206 4 -2 52 -7 107 -11z m1520 -785 c3 -6
-1 -7 -9 -4 -18 7 -21 14 -7 14 6 0 13 -4 16 -10z"/>
</g>
</svg>
